<svg width="36" height="16" fill="none" xmlns="http://www.w3.org/2000/svg"><path d="M7.007 12H.326V.661h1.411v10.081h5.27V12zm8.097-1.037c-.737.827-1.717 1.241-2.941 1.241-1.224 0-2.21-.414-2.958-1.241C8.468 10.136 8.1 9.11 8.1 7.886s.368-2.244 1.105-3.06c.748-.827 1.734-1.241 2.958-1.241 1.224 0 2.204.414 2.94 1.241.749.816 1.123 1.836 1.123 3.06s-.374 2.25-1.122 3.077zm-4.947-.816c.498.612 1.167.918 2.006.918.838 0 1.501-.306 1.989-.918.487-.623.73-1.377.73-2.261 0-.884-.243-1.632-.73-2.244-.488-.612-1.15-.918-1.99-.918-.838 0-1.507.312-2.005.935-.488.612-.731 1.354-.731 2.227 0 .884.243 1.638.73 2.261zm11.445 5.185c-.725 0-1.343-.09-1.853-.272-.51-.17-.997-.487-1.462-.952l.646-.952c.624.748 1.513 1.122 2.67 1.122.759 0 1.388-.204 1.886-.612.499-.397.748-1.014.748-1.853V10.64a3.57 3.57 0 01-1.19 1.054 3.159 3.159 0 01-1.564.408c-1.088 0-1.972-.38-2.652-1.139-.668-.77-1.003-1.808-1.003-3.111 0-1.303.335-2.34 1.003-3.111.68-.77 1.564-1.156 2.652-1.156 1.122 0 2.04.482 2.754 1.445V3.789h1.275v7.973c0 1.258-.368 2.165-1.105 2.72-.736.567-1.671.85-2.805.85zm.187-4.352c.488 0 .958-.13 1.411-.391.465-.26.81-.578 1.037-.952V6.05c-.226-.374-.566-.686-1.02-.935a2.823 2.823 0 00-1.428-.391c-.816 0-1.462.289-1.938.867-.464.578-.697 1.332-.697 2.261 0 .918.238 1.672.714 2.261.476.578 1.117.867 1.921.867zm12.805-.017c-.737.827-1.717 1.241-2.941 1.241-1.224 0-2.21-.414-2.958-1.241-.737-.827-1.105-1.853-1.105-3.077s.368-2.244 1.105-3.06c.748-.827 1.734-1.241 2.958-1.241 1.224 0 2.204.414 2.941 1.241.748.816 1.122 1.836 1.122 3.06s-.374 2.25-1.122 3.077zm-4.947-.816c.499.612 1.167.918 2.006.918.839 0 1.502-.306 1.989-.918.487-.623.731-1.377.731-2.261 0-.884-.244-1.632-.731-2.244-.487-.612-1.15-.918-1.989-.918-.839 0-1.507.312-2.006.935-.487.612-.731 1.354-.731 2.227 0 .884.244 1.638.731 2.261z" fill="#fff"/></svg>