<svg width="36" height="16" viewBox="0 0 36 16" fill="none" xmlns="http://www.w3.org/2000/svg">
<path d="M7.007 12H0.326V0.660999H1.737V10.742H7.007V12ZM15.1038 10.963C14.3671 11.7903 13.3868 12.204 12.1628 12.204C10.9388 12.204 9.95278 11.7903 9.20478 10.963C8.46811 10.1357 8.09978 9.11 8.09978 7.886C8.09978 6.662 8.46811 5.642 9.20478 4.826C9.95278 3.99867 10.9388 3.585 12.1628 3.585C13.3868 3.585 14.3671 3.99867 15.1038 4.826C15.8518 5.642 16.2258 6.662 16.2258 7.886C16.2258 9.11 15.8518 10.1357 15.1038 10.963ZM10.1568 10.147C10.6554 10.759 11.3241 11.065 12.1628 11.065C13.0014 11.065 13.6644 10.759 14.1518 10.147C14.6391 9.52367 14.8828 8.77 14.8828 7.886C14.8828 7.002 14.6391 6.254 14.1518 5.642C13.6644 5.03 13.0014 4.724 12.1628 4.724C11.3241 4.724 10.6554 5.03567 10.1568 5.659C9.66945 6.271 9.42578 7.01333 9.42578 7.886C9.42578 8.77 9.66945 9.52367 10.1568 10.147ZM21.6023 15.332C20.877 15.332 20.2593 15.2413 19.7493 15.06C19.2393 14.89 18.752 14.5727 18.2873 14.108L18.9333 13.156C19.5566 13.904 20.4463 14.278 21.6023 14.278C22.3616 14.278 22.9906 14.074 23.4893 13.666C23.988 13.2693 24.2373 12.6517 24.2373 11.813V10.64C23.9313 11.0707 23.5346 11.422 23.0473 11.694C22.56 11.966 22.0386 12.102 21.4833 12.102C20.3953 12.102 19.5113 11.7223 18.8313 10.963C18.1626 10.1923 17.8283 9.15533 17.8283 7.852C17.8283 6.54867 18.1626 5.51167 18.8313 4.741C19.5113 3.97033 20.3953 3.585 21.4833 3.585C22.6053 3.585 23.5233 4.06667 24.2373 5.03V3.789H25.5123V11.762C25.5123 13.02 25.144 13.9267 24.4073 14.482C23.6706 15.0487 22.7356 15.332 21.6023 15.332ZM21.7893 10.98C22.2766 10.98 22.747 10.8497 23.2003 10.589C23.665 10.3283 24.0106 10.011 24.2373 9.637V6.05C24.0106 5.676 23.6706 5.36433 23.2173 5.115C22.764 4.85433 22.288 4.724 21.7893 4.724C20.9733 4.724 20.3273 5.013 19.8513 5.591C19.3866 6.169 19.1543 6.92267 19.1543 7.852C19.1543 8.77 19.3923 9.52367 19.8683 10.113C20.3443 10.691 20.9846 10.98 21.7893 10.98ZM34.594 10.963C33.8573 11.7903 32.877 12.204 31.653 12.204C30.429 12.204 29.443 11.7903 28.695 10.963C27.9583 10.1357 27.59 9.11 27.59 7.886C27.59 6.662 27.9583 5.642 28.695 4.826C29.443 3.99867 30.429 3.585 31.653 3.585C32.877 3.585 33.8573 3.99867 34.594 4.826C35.342 5.642 35.716 6.662 35.716 7.886C35.716 9.11 35.342 10.1357 34.594 10.963ZM29.647 10.147C30.1457 10.759 30.8143 11.065 31.653 11.065C32.4917 11.065 33.1547 10.759 33.642 10.147C34.1293 9.52367 34.373 8.77 34.373 7.886C34.373 7.002 34.1293 6.254 33.642 5.642C33.1547 5.03 32.4917 4.724 31.653 4.724C30.8143 4.724 30.1457 5.03567 29.647 5.659C29.1597 6.271 28.916 7.01333 28.916 7.886C28.916 8.77 29.1597 9.52367 29.647 10.147Z" fill="white"/>
</svg>
